<svg xmlns="http://www.w3.org/2000/svg" viewBox="0 0 309 309.3"><defs><style>.cls-1{fill:#0083b2;}</style></defs><title>logo_t</title><g id="图层_8" data-name="图层 8"><path class="cls-1" d="M730.08,339.47h123v-46h-93V216h-216v231.5h108v77.8h201V401.47H698.66V366C699.53,357.14,708.52,339.36,730.08,339.47Zm53.53,108a23.07,23.07,0,0,1,23,23v8.21h-85a23.07,23.07,0,0,1-23-23v-8.21Zm-108.53-154a23.07,23.07,0,0,0-23,23V402h-30a32.09,32.09,0,0,1-32-32V294a31.67,31.67,0,0,1,32-31.5h60.84c17.76,1.28,29.66,14.32,30.78,31H675.08Z" transform="translate(-544.08 -215.97)"/></g><g id="图层_9" data-name="图层 9"><circle class="cls-1" cx="277.92" cy="154.53" r="31"/></g></svg>